<?xml version="1.0" encoding="utf-8"?>
<!-- Generator: Adobe Illustrator 22.1.0, SVG Export Plug-In . SVG Version: 6.00 Build 0)  -->
<svg version="1.1" id="Layer_1" xmlns="http://www.w3.org/2000/svg" xmlns:xlink="http://www.w3.org/1999/xlink" x="0px" y="0px"
	 viewBox="0 0 500 500" style="enable-background:new 0 0 500 500;" xml:space="preserve">
<style type="text/css">
	.st0{fill:#FF8A24;}
</style>
<g>
	<path d="M343,100.7c-5.2,0-9.4-4.2-9.4-9.4s4.2-9.4,9.4-9.4c5.2,0,9.4,4.2,9.4,9.4S348.2,100.7,343,100.7z M343,87.6
		c-2,0-3.7,1.7-3.7,3.7c0,2,1.7,3.7,3.7,3.7c2,0,3.7-1.7,3.7-3.7C346.7,89.2,345.1,87.6,343,87.6z"/>
	<path d="M373.6,158.4c-2.7,0-5-2.2-5-5s2.2-5,5-5c2.7,0,5,2.2,5,5S376.4,158.4,373.6,158.4z M373.6,151.4c-1.1,0-2,0.9-2,1.9
		c0,1.1,0.9,1.9,2,1.9c1.1,0,1.9-0.9,1.9-1.9C375.6,152.3,374.7,151.4,373.6,151.4z"/>
	<path d="M364.1,40.2c-4.7,0-8.6-3.8-8.6-8.6s3.8-8.6,8.6-8.6c4.7,0,8.6,3.8,8.6,8.6S368.8,40.2,364.1,40.2z M364.1,28.3
		c-1.9,0-3.4,1.5-3.4,3.4c0,1.9,1.5,3.4,3.4,3.4c1.9,0,3.4-1.5,3.4-3.4C367.5,29.8,366,28.3,364.1,28.3z"/>
	<path d="M384.4,124.7c-7.5,0-13.6-6.1-13.6-13.6c0-7.5,6.1-13.6,13.6-13.6c7.5,0,13.6,6.1,13.6,13.6
		C398,118.6,391.9,124.7,384.4,124.7z M384.4,105.8c-2.9,0-5.3,2.4-5.3,5.3c0,2.9,2.4,5.3,5.3,5.3c2.9,0,5.3-2.4,5.3-5.3
		C389.8,108.2,387.4,105.8,384.4,105.8z"/>
	<g>
		<g>
			<path class="st0" d="M331.3,332.6c-1.9-0.3-3.8-0.7-5.7-1.1c-2.3,1.7-5.3,3.4-8.6,4.9l5.2,78.5c6.8-2.6,11.5-5.4,14-7.6
				L331.3,332.6z"/>
			<g>
				<path class="st0" d="M327.4,238.8c0-1.9-1.5-3.4-3.4-3.4c-1.9,0-3.4,1.5-3.4,3.4c0,0.2,0,0.4,0.1,0.5c-1.1-1.1-1.9-2.6-1.9-4.3
					c0-3.2,2.5-5.8,5.7-5.9l-2.3-35.6c-2.3-0.2-4.6-0.7-6.9-1.4c-2.1,2.7-4.9,5-8,6.6l1.4,15l5.9,89.5c2,0.7,4,1.6,5.8,2.7
					c2.4-3.1,5.4-5.9,8.5-7.8l-3.6-56.1C326.6,241.4,327.4,240.2,327.4,238.8z"/>
				<path class="st0" d="M256.8,326.8c16.9,2.8,28.3-17.4,41.1-23.6l0.3-101.8c-4.2,1.1-8.3,1-12.1-0.1h-9.3c-0.2,0-0.4,0-0.6,0
					c0.6,10.8-5,21.9-17,24.7c-0.2,2.7-0.4,5.5-1.1,8.2c-1,4.3-5.6,6.9-9.8,6.3c0.1,12.5-0.7,25-0.8,37.5
					c-0.1,11.2-17.5,11.2-17.4,0c0.1-9.5,0.6-19.1,0.7-28.6c-3.2-0.6-6.3-2.8-6.8-6.2c-1.1-7.9-0.7-16-1.6-23.9
					c-2.2,0.7-4.6,1-7.2,1c-6.8,0-12-2.3-15.8-6l-3.8,58.1c0.5-0.1,1.1-0.1,1.6-0.1c5.5,0,10,4.5,10,10c0,5.5-4.5,10-10,10
					c-1,0-1.9-0.2-2.9-0.4l-7.5,115.5c7.2,6.4,32.3,17.1,74.5,17.1c13.8,0,25.8-1.2,35.9-2.9l0.2-78.6c-21.1,5.1-46.1,5.6-56.5-3.8
					c-2.1,2.1-4.9,3.3-8,3.3c-6.3,0-11.4-5.1-11.4-11.4c0-6.3,5.1-11.4,11.4-11.4c1.2,0,2.4,0.2,3.5,0.6c1.7-5.4,6.2-10.1,14.4-12.3
					C251.2,308,237.5,323.6,256.8,326.8z M271.1,243.5c3.3,0,5.9,2.6,5.9,5.9c0,1.6-0.7,3.1-1.7,4.2c-0.2-1.6-1.6-2.9-3.3-2.9
					c-1.9,0-3.4,1.5-3.4,3.4c0,0.2,0,0.5,0.1,0.7c-2.1-0.9-3.5-3-3.5-5.4C265.2,246.1,267.9,243.5,271.1,243.5z M211.6,386.8
					c-4.5,0-8.2-3.7-8.2-8.2c0-4.5,3.7-8.2,8.2-8.2s8.2,3.7,8.2,8.2C219.7,383.2,216.1,386.8,211.6,386.8z"/>
			</g>
		</g>
		<path d="M378.6,304.3c-0.5-6.4-1.6-19.8-17.7-19.8c-1.5,0-3.1,0.1-4.8,0.3l-8.2,1.1l-5.9-91.6c0.6-0.2,1.2-0.5,1.7-0.8
			c7.3-3.4,12.2-9.9,13.5-18.2c1.5-9-1.4-18.7-7.5-25.3c-0.1-0.8-0.2-1.7-0.3-2.5c0.3-7.6-2.5-14.7-7.9-20.3
			c-4.4-4.5-9.4-7.8-14.8-9.8c-2.8-5.4-7-10-12.7-13.9c-4.1-2.8-9-4.4-14.8-4.8c-3.2-2.3-6.4-4.1-9.8-5.3c-1.3-0.5-2.6-0.8-4-1.1
			c-5.5-4.6-12.2-8.5-19-11c-4.5-1.7-9.2-2.5-13.9-2.5c-14.5,0-27.4,7.8-33.9,20.4c-3.1,2.4-5.7,5.6-7.5,9.3
			c-4.8-1.2-9.8-1.2-14.1,0c-10.1,2.8-17,10.2-19.2,20.6c-3.6,2.6-6.8,5.8-9.5,9.6c-7.1,9.9-5,22.9-0.7,31.8
			c0.3,0.7,0.7,1.4,1.2,2.1c-2.5,8.6-1.2,18,3.6,25.2c1.1,1.6,2.4,3.1,3.8,4.4L157,201c-19.6-1.1-36.2,13.9-37.3,33.2l-8.4,135.1
			c-0.5,9.4,2.6,18.5,8.9,25.5c6.3,7,14.9,11.2,24.4,11.8l22.8,1.3l-1.9,29.6l0,0.3c0,11,10.5,21,29.6,28.2
			c17.9,6.7,41.5,10.4,66.7,10.4s48.8-3.7,66.7-10.4c19.1-7.2,29.6-17.2,29.6-28.2l-6.6-101.6c8.4-1.7,15.6-5.3,20.4-10.5
			C376.9,320,379.3,312.6,378.6,304.3z M354.9,292.2c0.7,0.3,3.3,2.2,3.4,4.1c0.1,1.9-2.2,4.5-6.2,7.1c-0.2,0.1-0.4,0.2-0.5,0.3
			c-0.4-0.7-0.9-1.8-1.2-2.6c-0.4-1-0.9-2.1-1.5-3.2l-0.6-9.3L354.9,292.2z M177,173.3l0.7-2l-1.2-1.7c-0.7-0.9-1.2-1.8-1.6-2.7
			c-3.1-6.5-5-16.6,0.1-23.8c2.4-3.4,5.4-6.3,8.8-8.5l1.5-1l0.3-1.7c0.7-4.7,3.5-13.1,13.8-15.9c3.8-1.1,8.6-0.7,12.9,1l3.9,1.5
			l1.3-4c1.3-4,3.6-7.3,6.8-9.5l0.8-0.6l0.4-0.9c5.1-10.4,15.5-16.8,27.3-16.8c3.8,0,7.5,0.7,11.1,2c6.3,2.4,12.5,6,17.5,10.3
			l0.8,0.7l1.1,0.2c1.3,0.2,2.5,0.5,3.6,1c3,1.1,5.8,2.7,8.7,4.9l1,0.7l1.2,0.1c4.9,0.3,8.8,1.4,12,3.6c5,3.4,8.5,7.4,10.7,12.1
			l0.7,1.6l1.7,0.5c4.8,1.5,9.2,4.3,13.1,8.3c4,4,6,9.3,5.6,14.8l0,0.5l0.1,0.5c0,0.1,0,0.3,0.1,0.3c0.2,1.1,0.3,2.1,0.4,3.3
			l0.1,1.5l1.1,1.1c4.9,4.7,7.4,12.5,6.3,19.4c-0.9,5.2-3.7,9.3-8,11.7l0,0c-0.3,0.2-0.7,0.4-1.1,0.6c-0.9,0.4-1.7,0.7-2.6,1.1
			c-0.3,0.1-0.5,0.2-0.8,0.3c-0.7,0.2-1.3,0.4-2,0.6c-0.5,0.1-0.9,0.3-1.4,0.4c-5.8,1.5-11.6,1.4-17.3-0.4l-2.6-0.8l-1.7,2.1
			c-3.4,4.3-8.3,7-13.6,7.6l-0.4,0l-0.8,0.3c-3.4,0.9-6.9,0.9-10.2,0l-0.5-0.2h-9.8l-4.8-0.1l0.3,4.3c0.5,8.5-3.6,18.2-14,20.6
			l-2.9,0.7l-0.2,3c-0.2,2.9-0.5,5.3-1,7.5c-0.5,2.3-3.2,3.6-5.3,3.3l-4.6-0.7l0,4.7c0.1,6.9-0.2,14-0.4,20.9
			c-0.2,5.4-0.3,11-0.4,16.6c0,4.3-4,4.5-4.8,4.5c-1.4,0-2.7-0.5-3.6-1.3c-0.7-0.7-1.1-1.8-1.1-3.1c0-5.1,0.2-10.3,0.4-15.3
			c0.1-4.3,0.3-8.8,0.4-13.2l0-3.3l-3.2-0.6c-1.6-0.3-3.4-1.4-3.6-2.8c-0.6-4.1-0.7-8.3-0.9-12.7c-0.1-3.6-0.3-7.4-0.7-11.1
			l-0.5-4.7l-4.6,1.4c-1.9,0.6-3.9,0.9-6.1,0.9c-12.4,0-16.6-8.9-17.9-12.7l-0.9-2.6l-2.8-0.1c-2-0.1-3.7-0.3-5.3-0.8
			c-1.7-0.5-3.2-1.2-4.4-2c0,0,0,0,0,0c-0.6-0.4-1.2-0.8-1.7-1.2c0,0,0,0,0,0c-0.5-0.4-1-0.9-1.4-1.3l0,0c-0.7-0.8-1.3-1.5-1.8-2.3
			C175.4,187.7,174.6,179.9,177,173.3z M167.8,400.1l-22.8-1.3c-7.3-0.4-14-3.7-18.9-9.1c-4.9-5.5-7.3-12.5-6.9-19.8l8.4-135.1
			c0.8-14.5,12.9-25.9,27.4-25.9c0.5,0,1.1,0,1.6,0l23.5,1.4l-1,15.5l-10.7-0.6c-15.4-0.9-28.5,10.9-29.4,26.2L132.5,354
			c-0.4,7.4,2.1,14.6,7,20.1c4.9,5.5,11.8,8.8,19.2,9.3l10.1,0.6L167.8,400.1z M169.3,376.1l-10.1-0.6c-5.3-0.3-10.2-2.7-13.7-6.6
			c-3.5-4-5.3-9.1-5-14.4l6.4-102.8c0.6-10.9,10-19.4,21-18.7l10.7,0.6L169.3,376.1z M261.6,468.4c-51.9,0-88.2-16.1-88.4-30.5
			l14.9-229.7c0.9,0.2,1.9,0.4,2.9,0.5c4.2,9.8,13.2,15.6,24.4,15.6c1.2,0,2.4-0.1,3.6-0.2c0.1,2,0.2,4.1,0.3,6.2
			c0.2,4.4,0.3,9,1,13.5c0.5,3.6,3.1,6.7,6.7,8.4c-0.1,3.4-0.2,6.8-0.3,10.2c-0.2,5.1-0.4,10.4-0.4,15.6c0,3.4,1.2,6.5,3.4,8.7
			c2.3,2.3,5.7,3.7,9.2,3.7c6.3,0,12.7-4.2,12.7-12.3c0-5.5,0.2-11,0.4-16.4c0.2-5.7,0.4-11.5,0.4-17.4c4.7-1,8.6-4.5,9.7-9.2
			c0.4-1.9,0.7-3.8,1-6c11.1-3.9,16.4-14.1,17.2-23.7h5.5c4.6,1.2,9.3,1.2,14-0.1c0.1,0,0.2-0.1,0.4-0.1c6.3-0.8,12.3-3.8,16.8-8.5
			c3,0.7,6.1,1.1,9.2,1.1c2.8,0,5.6-0.3,8.5-0.9l6.1,94.3c-0.7-0.1-1.4-0.2-2.3-0.2c-1,0-2.1,0.1-3.3,0.4
			c-5.3,1.2-10.9,4.7-15.4,9.6c-6.1-2.9-12.6-4-18-3c-7.2,1.4-13.2,6.9-19.6,12.6c-6.9,6.2-14,12.7-21.9,12.7
			c-0.8,0-1.7-0.1-2.5-0.2c-3.9-0.6-6.3-1.9-6.9-3.4c-0.8-2.3,1.6-6.7,3.6-9l8.5-9.7l-12.4,3.3c-7.2,1.9-12.7,5.8-15.6,11.2
			c-2.9,5.3-3.4,11.9-1.3,18.5c3.4,10.7,16.1,16.6,35.8,16.6c20.5,0,44.6-6.2,57.3-14.7c4.6,1,9.2,1.5,13.8,1.5c0,0,0,0,0,0
			c1.1,0,2.2,0,3.2-0.1l6.5,100.7C349.8,452.4,313.5,468.4,261.6,468.4z M365.9,320.3c-5.3,5.8-14.7,9.1-25.7,9.1
			c-4.6,0-9.2-0.6-13.7-1.7l-1.8-0.5l-1.5,1.1c-10.6,7.8-34.9,14.2-54.1,14.2c-15.7,0-26-4-28.3-11.1c-1.4-4.5-1.2-8.9,0.7-12.3
			c0.3-0.6,0.7-1.1,1.1-1.7c-0.1,1.5,0,3.1,0.6,4.7c1.6,4.5,6,7.4,13,8.6c1.3,0.2,2.6,0.3,3.8,0.3c11,0,19.6-7.8,27.2-14.7
			c5.5-5,10.7-9.7,15.8-10.7c4.2-0.8,10.2,0.6,15.4,3.6l3,1.8l2.1-2.8c3.6-4.7,8.6-8.3,13-9.2c0.6-0.1,1.1-0.2,1.6-0.2
			c2.1,0,3,1.3,4.8,5.5c1.4,3.2,3.2,7.6,8.1,7.6h0c1.7,0,3.4-0.6,5.2-1.8c6.7-4.3,10-9.1,9.8-14c0-1.1-0.2-2-0.5-2.9
			c3.3,1.4,4.6,4.8,5.1,11.8C371.3,311.1,369.6,316.2,365.9,320.3z"/>
	</g>
</g>
</svg>
