<?xml version="1.0" encoding="utf-8"?>
<!-- Generator: Adobe Illustrator 22.1.0, SVG Export Plug-In . SVG Version: 6.00 Build 0)  -->
<svg version="1.1" id="Layer_1" xmlns="http://www.w3.org/2000/svg" xmlns:xlink="http://www.w3.org/1999/xlink" x="0px" y="0px"
	 viewBox="0 0 500 500" style="enable-background:new 0 0 500 500;" xml:space="preserve">
<style type="text/css">
	.st0{fill:#FF8A24;}
</style>
<g>
	<g>
		<g>
			<path class="st0" d="M202.6,138.4c-1.6,3.5-3.3,7.2-5.2,11.1c-1.5,3.1-2.9,6.2-4.4,9.3c0.5,0,1.1,0.1,1.6,0.2
				c2.2,0.8,3.3,3.2,2.5,5.4c-0.8,2.2-3.2,3.3-5.4,2.5c-0.8-0.3-1.4-0.8-1.9-1.4c-10,20.8-19.2,39.4-22.2,44.4
				c-5.1,8.8-15.1,13.3-24.8,17.6c-4.7,2.1-13.4,6-14.7,8.5c-1.2,3.3-6.1,16.9-12.8,35.6c16.6,17.6,70,38.2,93.6,34.7
				c7-18.9,12.1-32.6,13.3-35.9c0.6-2.7-3.6-11.3-5.8-16c-4.6-9.5-9.4-19.4-7.6-29.4c1.1-6.3,6.8-29.9,13.3-54.6
				c-1.3,0.5-2.8,0.5-4.2,0c-3.3-1.2-5-4.9-3.8-8.2c1.2-3.3,4.9-5,8.2-3.8c1,0.4,1.9,1,2.6,1.8c0.1-0.2,0.1-0.5,0.2-0.7
				c1.1-4.2,2.2-8.2,3.2-11.9L202.6,138.4z M173.4,216.3c0.5-1.5,2.1-2.2,3.6-1.7c1.5,0.5,2.2,2.1,1.7,3.6c-0.5,1.5-2.1,2.2-3.6,1.7
				C173.6,219.4,172.9,217.8,173.4,216.3z M181.4,263.3c-0.7,1.9-2.8,2.9-4.7,2.2c-1.9-0.7-2.9-2.8-2.2-4.7c0.7-1.9,2.8-2.9,4.7-2.2
				C181.1,259.3,182.1,261.4,181.4,263.3z M189.5,182.6c-1.3-0.5-1.9-1.9-1.5-3.1c0.5-1.3,1.9-1.9,3.1-1.5c1.3,0.5,1.9,1.9,1.5,3.1
				C192.1,182.4,190.7,183,189.5,182.6z M198.4,194.7c-0.7,1.8-2.6,2.7-4.4,2.1c-1.8-0.7-2.7-2.6-2.1-4.4s2.6-2.7,4.4-2.1
				C198.1,191,199,192.9,198.4,194.7z"/>
			<path class="st0" d="M74.2,386.5c-8.1,22.7-14.8,41.3-17.6,49.3c2.4,3.5,10.3,12.1,34.9,22.7l1.1,0.5l1,0.6
				c0.1,0.1,0.2,0.1,0.2,0.1c1.8,0.6,3.5,1.3,5.3,1.9l0.2,0.1l0.2,0.1c1.8,0.7,3.5,1.4,5.3,2c0,0,0.1,0,0.2,0l1.1,0.1l1.1,0.3
				c25.6,7.8,37.2,6.3,41.3,5.1c2.9-7.8,9.5-25.7,17.7-47.7C141.9,426.1,90.8,405,74.2,386.5z"/>
		</g>
		<g>
			<path class="st0" d="M280.5,147.7c1,3.7,2.1,7.6,3.2,11.9c0.1,0.2,0.1,0.5,0.2,0.7c0.7-0.8,1.5-1.4,2.6-1.8
				c3.3-1.2,7,0.5,8.2,3.8c1.2,3.3-0.5,7-3.8,8.2c-1.4,0.5-2.9,0.5-4.2,0c6.5,24.7,12.2,48.3,13.3,54.6c1.7,10-3,19.9-7.6,29.4
				c-2.2,4.6-6.4,13.3-5.8,16c1.2,3.3,6.3,17,13.3,35.9c23.7,3.6,77-17,93.6-34.7c-6.7-18.7-11.6-32.3-12.8-35.6
				c-1.3-2.4-10-6.3-14.7-8.5c-9.7-4.3-19.7-8.8-24.8-17.6c-2.9-5-12.2-23.6-22.2-44.4c-0.5,0.6-1.1,1.1-1.9,1.4
				c-2.2,0.8-4.6-0.3-5.4-2.5c-0.8-2.2,0.3-4.6,2.5-5.4c0.5-0.2,1.1-0.3,1.6-0.2c-1.5-3.1-2.9-6.2-4.4-9.3c-1.9-4-3.6-7.7-5.2-11.1
				L280.5,147.7z M333.5,219.9c-1.5,0.5-3.1-0.2-3.6-1.7c-0.5-1.5,0.2-3.1,1.7-3.6c1.5-0.5,3.1,0.2,3.6,1.7
				C335.7,217.8,334.9,219.4,333.5,219.9z M329.3,258.6c1.9-0.7,4,0.3,4.7,2.2c0.7,1.9-0.3,4-2.2,4.7c-1.9,0.7-4-0.3-4.7-2.2
				C326.5,261.4,327.4,259.3,329.3,258.6z M316,181.1c-0.5-1.3,0.2-2.7,1.5-3.1c1.3-0.5,2.7,0.2,3.1,1.5c0.5,1.3-0.2,2.7-1.5,3.1
				S316.4,182.4,316,181.1z M312.2,190.3c1.8-0.7,3.8,0.3,4.4,2.1c0.7,1.8-0.3,3.8-2.1,4.4c-1.8,0.7-3.8-0.3-4.4-2.1
				C309.5,192.9,310.4,191,312.2,190.3z"/>
			<path class="st0" d="M434.4,386.5c8.1,22.7,14.8,41.3,17.6,49.3c-2.4,3.5-10.3,12.1-34.9,22.7l-1.1,0.5l-1,0.6
				c-0.1,0.1-0.2,0.1-0.2,0.1c-1.8,0.6-3.5,1.3-5.3,1.9l-0.2,0.1l-0.2,0.1c-1.8,0.7-3.5,1.4-5.3,2c0,0-0.1,0-0.2,0l-1.1,0.1
				l-1.1,0.3c-25.6,7.8-37.2,6.3-41.3,5.1c-2.9-7.8-9.5-25.7-17.7-47.7C366.7,426.1,417.8,405,434.4,386.5z"/>
		</g>
		<path d="M460.7,422.5c-4.1-11.5-10.6-29.7-18-50.3c0-0.1-0.1-0.3-0.1-0.4l-1.6-4.5c-20.1-56.1-45.7-127.6-48.6-135.5
			c-4.9-13.3-33.8-16.7-40.5-28.1c-6.7-11.4-53.2-107.9-54.6-118.7c-0.6-4.4-3.4-5.7-6.5-5.7c-0.1,0-0.2,0-0.3,0
			c-5.5,0.1-13.4,4.2-18.3,6c-4.9,1.8-13.6,3.8-17.9,7.2c0,0,0,0,0,0c0,0,0,0,0,0c-4.3-3.4-13-5.4-17.9-7.2
			c-4.9-1.8-12.8-5.9-18.3-6c-0.1,0-0.2,0-0.3,0c-3.1,0-5.9,1.3-6.5,5.7c-1.4,10.8-47.9,107.3-54.6,118.7
			c-6.7,11.4-35.6,14.7-40.5,28.1c-2.9,8-28.5,79.4-48.6,135.5l-1.6,4.5c0,0.1-0.1,0.3-0.1,0.4c-7.4,20.6-13.9,38.7-18,50.3
			c-2.6,7.3-3.2,19.5,2.2,25.1c4.4,4.6,11.7,10.2,23.7,16.4c6.9,3.5,13.2,6.3,14,6.7c0.5,0.2,0.9,0.5,1.5,0.6c1.9,0.7,3.8,1.4,5.6,2
			c1.8,0.7,3.7,1.4,5.6,2.1c0.5,0.2,1,0.3,1.5,0.4c0.9,0.2,7.5,2.2,15.1,3.9c9.7,2.2,17.2,3,23.1,3c2.1,0,4-0.1,5.7-0.3
			c7.7-0.8,15.1-10.5,17.8-17.8c7.4-20,22.3-60,36.4-98.2c9.9-0.4,18.3-5.3,21.3-16.1c2.3-8.3,2.6-15.2-8.5-18.2
			c11-29.6,19.7-53.1,21.3-57.5c4.9-13.3-15.1-34.5-12.9-47.5c2.1-12.2,25.2-103.1,33.1-122.9c7.9,19.7,31,110.7,33.1,122.9
			c2.2,13-17.8,34.2-12.9,47.5c1.6,4.4,10.3,27.9,21.3,57.5c-11.2,3.1-10.8,10-8.5,18.2c3,10.8,11.4,15.7,21.3,16.1
			c14.2,38.2,29,78.1,36.4,98.2c2.7,7.2,10.1,17,17.8,17.8c1.7,0.2,3.6,0.3,5.7,0.3c5.8,0,13.4-0.8,23.1-3
			c7.5-1.7,14.2-3.7,15.1-3.9c0.5-0.1,1-0.3,1.5-0.4c1.9-0.7,3.8-1.4,5.6-2.1c1.8-0.6,3.7-1.3,5.6-2c0.5-0.2,1-0.4,1.5-0.6
			c0.8-0.4,7.2-3.2,14-6.7c12-6.2,19.3-11.8,23.7-16.4C463.9,442,463.3,429.8,460.7,422.5z M157.1,462.3c-2.3,6.3-8.3,12.9-12,13.3
			c-1.5,0.2-3.2,0.2-5,0.2c-6.1,0-13.3-0.9-21.5-2.8c-5.4-1.2-10.3-2.6-13-3.3c-1.3-0.3-1.7-0.5-2.1-0.6c-0.2-0.1-0.4-0.1-0.6-0.2
			c-1.8-0.7-3.6-1.4-5.5-2.1l-0.1-0.1l-0.1,0c-1.9-0.6-3.7-1.3-5.5-1.9c-0.2-0.1-0.4-0.2-0.6-0.3c-0.3-0.2-0.8-0.4-2-0.9
			c-2.5-1.1-7.1-3.3-12.1-5.8c-9.7-5-17.1-10.1-21.9-15.1c-2.6-2.7-2.9-11.5-0.6-17.8c4.3-12,9.2-25.6,14.2-39.7
			c0.1,0.1,0.1,0.2,0.2,0.3c12.9,18.4,61.6,40.2,89.9,40.2c5.2,0,9.3-0.7,12.5-1.9C165.9,438.5,161,451.8,157.1,462.3z M199.5,345.1
			c-2.2-3.4,1.6-13.1-7.7-14.3c-5-0.7-11,1.1-15.9,4.3c-3.7-4.5-8.9-8.2-13.9-8.9c-13.1-2-30.7,15.4-45.4,7.1
			c-15.1-8.5,1-17.4,1-17.4c-13-1.2-18.9,7.3-19.3,16.2c-0.9,21.4,53,32,73.9,25.9c6,4.1,12.9,6.9,19.6,8.1l-16.7,45.7
			c-2.1,5.8-10.1,7-16.4,7c-26.1,0-72.5-20.5-84.2-37.2c-1.9-2.8-2.6-5.1-2.1-6.9c0.6-1.6,1.2-3.2,1.7-4.8l36-98.6
			c13,17.7,63.8,39.2,92.8,39.2c3.7,0,6.9-0.4,9.6-1.1L199.5,345.1z M208.2,344.6c1.4-3.8,2.8-7.5,4.1-11.2
			C213.9,336,215.8,341.3,208.2,344.6z M214.3,226c-1.4,8.3,2.9,17.3,7.2,26.1c3.6,7.4,7.7,15.9,6.1,20.3c-0.8,2.3-3.5,9.6-7.5,20.2
			c-1.4,3-3.3,5.4-3.5,5.8c-1.6,4.3-9.2,4.9-13.5,4.9c-26.4,0-76.2-20.9-87.3-36.6c-1.7-2.3-2.3-4.3-1.7-5.8
			c0.1-0.3,0.2-0.6,0.3-0.8c0,0,0.4-2.5,0.8-4.1c4.1-11.5,7-19.4,7.8-21.8c1.6-4.4,10.1-8.2,17.7-11.6c8.9-4,18-8.1,22.3-15.3
			c6.2-10.6,52.9-106.7,55.5-120.9c2.8,0.2,7.6,2.2,11.1,3.7c1.7,0.7,3.2,1.3,4.7,1.9c1.4,0.5,3.1,1,4.8,1.6
			c3.7,1.1,8.6,2.7,10.9,4.3C242.4,110.3,216.3,213.9,214.3,226z M292,298.4c-0.1-0.4-2-2.8-3.5-5.8c-3.9-10.6-6.7-18-7.5-20.2
			c-1.6-4.4,2.5-12.8,6.1-20.3c4.2-8.8,8.6-17.8,7.2-26.1c-2.1-12.1-28.2-115.7-35.4-128.2c2.3-1.6,7.2-3.2,10.9-4.3
			c1.7-0.5,3.3-1,4.8-1.6c1.4-0.5,3-1.2,4.7-1.9c3.5-1.5,8.3-3.5,11.1-3.7c2.5,14.2,49.2,110.3,55.5,120.9
			c4.2,7.2,13.4,11.4,22.3,15.3c7.5,3.4,16.1,7.2,17.7,11.6c0.9,2.4,3.7,10.2,7.8,21.8c0.4,1.7,0.8,4.1,0.8,4.1
			c0.1,0.3,0.2,0.5,0.3,0.8c0.5,1.5-0.1,3.4-1.7,5.8c-11.2,15.7-61,36.6-87.3,36.6C301.2,303.3,293.7,302.6,292,298.4z M296.2,333.4
			c1.4,3.6,2.7,7.4,4.1,11.2C292.8,341.3,294.6,336,296.2,333.4z M333.3,411.7L316.7,366c6.7-1.2,13.5-4,19.6-8.1
			c20.9,6.1,74.8-4.5,73.9-25.9c-0.4-9-6.2-17.4-19.3-16.2c0,0,16.1,8.9,1,17.4c-14.7,8.3-32.4-9.2-45.4-7.1
			c-5,0.8-10.1,4.4-13.9,8.9c-5-3.2-11-4.9-15.9-4.3c-9.2,1.3-5.5,10.9-7.7,14.3L296,309.2c2.7,0.7,5.9,1.1,9.6,1.1
			c29,0,79.8-21.5,92.8-39.2l36,98.6c0.6,1.6,1.2,3.2,1.7,4.8c0.5,1.8-0.2,4.1-2.1,6.9c-11.7,16.7-58.1,37.2-84.2,37.2
			C343.4,418.7,335.4,417.5,333.3,411.7z M453.5,442.7c-4.8,5-12.2,10.1-21.9,15.1c-4.9,2.5-9.6,4.7-12.1,5.8
			c-1.2,0.6-1.7,0.8-2,0.9c-0.2,0.1-0.4,0.2-0.6,0.3c-1.8,0.7-3.6,1.3-5.5,1.9l-0.1,0l-0.1,0.1c-1.8,0.7-3.6,1.4-5.5,2.1
			c-0.2,0.1-0.4,0.1-0.6,0.2c-0.4,0.1-0.8,0.2-2.1,0.6c-2.7,0.7-7.6,2.1-13,3.3c-8.2,1.9-15.4,2.8-21.5,2.8c-1.8,0-3.4-0.1-5-0.2
			c-3.7-0.4-9.6-7-12-13.3c-3.9-10.5-8.8-23.8-14.3-38.5c3.2,1.2,7.3,1.9,12.5,1.9c28.3,0,77-21.8,89.9-40.2
			c0.1-0.1,0.1-0.2,0.2-0.3c5.1,14.2,9.9,27.7,14.2,39.7C456.4,431.2,456.1,440.1,453.5,442.7z"/>
	</g>
	<rect x="220.5" y="36.7" transform="matrix(0.6936 -0.7203 0.7203 0.6936 26.9577 179.0636)" width="7" height="42.3"/>
	<rect x="250.9" y="17" width="7" height="51.9"/>
	<g>
		<rect x="264.7" y="53.5" transform="matrix(0.7071 -0.7071 0.7071 0.7071 42.6156 216.8348)" width="36.7" height="7"/>
	</g>
</g>
</svg>
