<?xml version="1.0" encoding="utf-8"?>
<!-- Generator: Adobe Illustrator 23.0.1, SVG Export Plug-In . SVG Version: 6.00 Build 0)  -->
<svg version="1.1" id="Layer_1" xmlns="http://www.w3.org/2000/svg" xmlns:xlink="http://www.w3.org/1999/xlink" x="0px" y="0px"
	 viewBox="0 0 1024 1024" style="enable-background:new 0 0 1024 1024;" xml:space="preserve">
<style type="text/css">
	.st0{fill:#FAB03C;}
</style>
<path class="st0" d="M291.5,543.6c-0.7,2.2-1.1,2.8-1.1,3.4c-0.2,78.1-0.2,156.2-0.5,234.3c0,5.8,2.5,9.6,6.6,13.4
	c19.8,17.7,43.4,27.9,68.6,34.1c80.9,20,162.3,18.2,243.6,2.6c32.4-6.2,62.9-17.5,90.1-37.3c14.1-10.3,18-22.2,17.1-39.1
	c-4.7-83.8-8.4-167.7-12.3-251.6c-1.6-33.1-2.9-66.1-4.4-99.2c-0.2-4.6,0.3-10-6.9-8.6c-12.3,2.4-23.5-0.5-34.3-6
	c-3.9-2-6-1-8.3,2.8c-12.9,21.1-23,24.9-47.1,18.4c-3.6-1-7.4-3.6-10.9-0.6c-14.3,12.3-30,11.2-46.2,5.2c-4.8-1.8-7.6-0.7-10.4,3.5
	c-12.9,19.6-30.9,29.7-54.6,28.7c-6.4-0.3-9,2.5-7.8,8.8c1,5.2,1.2,10.3,0.4,15.6c-3.3,20.1-14.2,35.5-29.7,47.7
	c-7.1,5.6-11,11.8-12.6,20.5c-2.4,13.3-8.8,24.9-16.8,35.6c-21.1,28.3-78.5,40.1-105.8-0.1C301.4,566.1,296.5,555.9,291.5,543.6z"/>
<path d="M849.9,433.9c-6.6-55-45.1-88.2-100.6-90c-3.5-0.1-8.7,2-10.1-2.8c-1.1-3.9,1-8.3,4-11.5c1.9-2,4.3-3.5,6.4-5.3
	c14.9-12.2,18.8-27.2,11-44.7c-2.6-5.9-3.7-11.4-2.9-18c2-15.6-4.5-28.6-16.8-32.5c-7.4-2.4-10.1-6.6-11.8-13.7
	c-5.8-23.9-19.7-35.1-43.7-35.7c-5.3-0.1-9.2-1.5-13.1-5c-9-8-19.6-12.4-31.8-9.6c-7.9,1.8-9.7-1.2-10.2-8.3
	c-0.9-14.1-6.3-26.3-17.6-35.4C575.3,91.3,530.5,91,492.9,121c-4.6,3.7-8.5,4.7-14.2,2.4c-17.6-7.1-34.3-4.8-49.2,7
	c-4.9,3.9-9.4,4.7-15.4,3.3c-12.1-2.7-24-0.9-33.8,6.6c-7.1,5.5-11.5,4.1-18-0.9c-15.8-12.3-32-11.3-45.9,3
	c-6.4,6.6-12.9,9.1-21.9,9.4c-31.9,1-54.7,23-55.2,53.9c-0.2,10.2-3.9,16.2-11.5,22.6c-17.3,14.6-29.5,32.3-21.7,56.6
	c2.2,6.9,1.3,11.6-3.1,17c-9.6,11.9-13.7,25.2-6.9,39.9c2.8,6.1,3.2,11.7,1.7,18.2c-3.4,15.5,0.8,29.3,12,40.2
	c7.5,7.3,14.6,14.6,18.7,24.6c3,7.3,9.3,12.4,17,14.5c6.2,1.7,8,5.3,8.3,11.3c0.8,14.6,4.4,28.5,15,39.2c4.6,4.7,6.1,9.5,6.1,15.8
	c-0.2,92-0.3,184.1-0.3,276.1c0,5.3-1.1,10.2-3.1,15.2c-8.3,21.6-12.7,44.2-13.4,67.3c-0.7,21.7,7,38.4,29,46.8
	c11.7,4.5,22.9,10.1,34.9,14c56,18.3,113.9,22.5,168.2,24.4c38.9-0.7,73.7-2.4,108.2-8.2c44.6-7.5,87.9-18.8,126.7-43.5
	c16.9-10.8,24.3-26.3,25-45.6c0.8-21.4-5.2-41.3-13.8-60.6c-11.2-25-9.1-28.9,17-32.5c24.3-3.3,46.7-11.8,65.2-28.2
	c27.4-24.2,41.1-55.2,42.2-91.3C862.8,570.6,858.1,502.1,849.9,433.9z M269.2,454.6c-0.9-6.5-0.3-13.2-0.2-19.8
	c0-6.7-2.4-11.1-10-9.6c-10.8,2.2-16.8-3.4-19.9-12.4c-2.6-7.7-7.5-12.9-13.7-17.8c-13.7-10.8-16.7-22.2-10.8-38.9
	c1.6-4.6,1.8-8.5-0.8-12.9c-8.7-14.7-8.1-24.8,4.2-36.3c8.1-7.5,9.1-13.5,3.7-23.3c-7.4-13.4-2.9-27.3,7.7-36
	c16.5-13.5,27.1-27.3,26.7-50.6c-0.3-17.4,17.2-29.3,37.2-29.7c13.6-0.3,24.5-2.3,33.4-14.3c7-9.5,18.2-8.7,27.8-0.6
	c3.2,2.6,5.8,6,8.5,9.1c4.5,5.3,9.2,6.1,14.1,0.7c12-13.5,26-18,43.1-10.5c5.4,2.4,9.2-0.5,13-4c16.7-15.6,26.6-17.1,47-6.7
	c6.1,3.1,10.2,2.1,14.9-2.4c11.5-10.9,24.6-19.5,40.3-23.2c26.8-6.3,49.5,2.9,69.7,19.5c10.9,8.9,10.6,22,10.5,32.8
	c-1,24-0.6,24.2,19.1,15.2c12.2-5.7,21.9-3.9,30.8,6.5c4.3,5.1,8.8,6.7,15.4,6c20.6-2.1,33.4,8.2,34.5,28.4c0.6,11.8,2.9,19.4,17,19
	c7.7-0.2,10.8,6.6,10.1,13.3c-1.1,11.3,0.2,21.5,5.3,32c4.8,9.9,0.6,19.5-8.7,25.3c-8.1,5-12,11.8-14.1,20.8c-2.2,9.5-6,18.5-11,27
	c-12.7,21.3-30.4,26.3-52.3,14.4c-3.1-1.6-5.8-3.8-8.8-5.6c-7.8-4.7-12-2.9-14.3,6.1c-0.3,1-0.3,2.1-0.5,3.1
	c-3.7,17.1-12.6,22.8-29.6,18.5c-4.4-1.1-8.5-3.1-12.7-4.8c-3.8-1.6-7.6-2.1-10.4,1.6c-10.9,14.4-24.5,12-38.6,6.2
	c-15.2-6.3-15.2-6.4-23.2,8.5c-9.7,18.1-29,27.3-51.3,24.3c-3.1-0.4-6.2-1.1-9.3-1.5c-3.8-0.5-7.8-1.4-10.7,2.2
	c-3.3,4.1-1.1,7.9,0.8,11.7c9.8,19,6.2,37.4-8.3,50.8c-16.8,15.6-27.3,33-34.2,54.9c-8.4,26.6-34.3,39.4-61.9,34.9
	c-15.6-2.5-26-12.6-33.7-25.8c-11.1-19-16.1-40-18.5-61.6c-0.9-7.8-3.5-12.6-11-15.8C273.3,477.9,270.7,466.1,269.2,454.6z
	 M472.1,456.7c-1.2-6.4,1.4-9.1,7.8-8.8c23.7,1,41.7-9.1,54.6-28.7c2.8-4.2,5.6-5.3,10.4-3.5c16.2,6,31.9,7.1,46.2-5.2
	c3.5-3,7.4-0.4,10.9,0.6c24.1,6.5,34.2,2.8,47.1-18.4c2.3-3.8,4.4-4.8,8.3-2.8c10.8,5.5,22.1,8.4,34.3,6c7.2-1.4,6.7,4,6.9,8.6
	c1.5,33.1,2.8,66.1,4.4,99.2c4,83.9,7.7,167.8,12.3,251.6c0.9,16.8-3,28.8-17.1,39.1c-27.2,19.8-57.7,31.1-90.1,37.3
	c-81.3,15.6-162.7,17.4-243.6-2.6c-25.2-6.2-48.9-16.4-68.6-34.1c-4.2-3.7-6.7-7.5-6.6-13.4c0.2-78.1,0.3-156.2,0.5-234.3
	c0-0.6,0.4-1.2,1.1-3.4c4.9,12.3,9.9,22.5,16.4,32.1c27.4,40.3,84.7,28.4,105.8,0.1c8-10.8,14.4-22.3,16.8-35.6
	c1.6-8.7,5.5-14.9,12.6-20.5c15.4-12.2,26.4-27.6,29.7-47.7C473.4,467,473.1,461.9,472.1,456.7z M735.1,850.7
	c-0.3,16.7-7.2,28.3-21.5,36.7c-34.8,20.4-72.9,31-112.3,37.9c-34,5.9-68.5,7.6-101.3,8.8c-61.3-1.9-120.6-5.6-177.8-25.2
	c-11.2-3.9-21.9-8.9-32.6-13.9c-10.4-4.8-15.1-12.8-16-23.7c-1.8-20.9,4-40.8,8.7-60.8c0.9-3.8,3.2-5.5,6.8-2.5
	c39.1,31.9,86.2,41.6,134.3,46.5c65.4,6.7,130.8,5,195.3-9.9c36-8.3,70.1-21,97.8-46.9c4.4-4.2,6.1-2.5,7.9,2.2
	C730.3,816.3,735.3,832.8,735.1,850.7z M780.4,631c-5.4,23.4-16.4,42-41.6,48.8c-8.4,2.3-12.5,0.2-12.9-8.9
	c-0.7-18.1-1.9-36.1-2.7-54.2c-2.2-49-4.5-98-6.6-147c-0.6-13.2,22.6-37.8,35.9-38.3c7.9-0.3,11.5,5.8,14.6,11.7
	c7,13.1,9.9,27.4,11.1,42.1c2.5,30.5,4.7,61.1,4.2,91.7C782.1,594.9,784.5,613.1,780.4,631z M828.4,697.3
	c-21.4,33.5-53.8,45.6-91.3,48.3c-5,0.4-7.8-1.6-8-7.1c-0.5-11.1-1.2-22.2-1.9-33.4c-0.3-4.6,0.7-7.5,6.2-9
	c42.3-11.8,62.7-35.5,64.2-78.7c1.7-49.1,0.5-98.2-5.8-147c-1.6-12.6-5.6-24.5-11.8-35.5c-10.8-19.3-27.1-23.4-45.6-11.5
	c-3.2,2-6,4.8-9.2,6.8c-3,1.9-4.8,7.8-8.8,5.6c-3.4-1.8-1.4-7.1-1.6-10.8c-0.6-10.1-0.7-20.2-1.6-30.2c-0.5-5.6,0.5-10.2,4.6-14.3
	c2.4-2.5,5.2-5.1,6.4-8.2c4.6-11.7,13-15.5,23-13.2c54.5,0.8,84.9,32.4,90.2,90.1c4.7,52,8.4,104.1,9.7,156.3
	C847.6,637.2,846.5,669,828.4,697.3z"/>
</svg>
